<svg width="68" height="38" viewBox="0 0 68 38" fill="none" xmlns="http://www.w3.org/2000/svg">
<path fill-rule="evenodd" clip-rule="evenodd" d="M30.4526 19.5011C31.3929 19.5011 32.2157 19.705 32.9209 20.1126C33.6373 20.5202 34.1913 21.0887 34.5831 21.8181C34.9861 22.5476 35.1877 23.4004 35.1877 24.3765C35.1877 25.3311 34.9861 26.1786 34.5831 26.9187C34.1914 27.6481 33.6373 28.2165 32.9209 28.6241C32.2157 29.021 31.3929 29.2195 30.4526 29.2195C29.5458 29.2195 28.7342 29.021 28.0178 28.6241C27.3859 28.2646 26.8543 27.7798 26.4227 27.1699V38L22.9805 36.5621V19.7746H26.4227V21.5326C26.8605 20.9325 27.3922 20.4591 28.0178 20.1126C28.7342 19.705 29.5458 19.5011 30.4526 19.5011ZM29.4115 22.0112C28.9526 22.0112 28.5159 22.113 28.1017 22.3168C27.6875 22.5206 27.3237 22.7996 27.0103 23.1535C26.6969 23.5075 26.4562 23.9152 26.2882 24.3765C26.4562 24.827 26.6969 25.2292 27.0103 25.5832C27.3237 25.9371 27.6875 26.2161 28.1017 26.4199C28.5159 26.613 28.9526 26.7094 29.4115 26.7094C29.8593 26.7094 30.2567 26.6129 30.6037 26.4199C30.9619 26.2161 31.2362 25.9372 31.4265 25.5832C31.6279 25.2292 31.7286 24.827 31.7286 24.3765C31.7286 23.9152 31.6279 23.5075 31.4265 23.1535C31.2362 22.7996 30.9619 22.5206 30.6037 22.3168C30.2567 22.113 29.8593 22.0112 29.4115 22.0112Z" fill="#171717" style="fill:#171717;fill:color(display-p3 0.0902 0.0902 0.0902);fill-opacity:1;"/>
<path d="M48.6946 24.8114C48.6173 26.0605 48.0107 27.2913 46.8617 28.2459C45.7127 29.2001 44.2302 29.7039 42.7262 29.7681C42.9739 28.8851 43.7226 27.7631 45.0015 26.701C46.2809 25.6389 47.6319 25.0172 48.6946 24.8114Z" fill="#171717" style="fill:#171717;fill:color(display-p3 0.0902 0.0902 0.0902);fill-opacity:1;"/>
<path d="M43.135 19.308C44.497 19.4404 45.8174 19.9364 46.8617 20.8041C47.9065 21.6714 48.5037 22.7679 48.6631 23.8986C47.298 24.1132 45.6933 24.8638 44.2577 26.0561C42.8225 27.248 41.9176 28.581 41.6603 29.7147C40.2983 29.5819 38.9779 29.0861 37.9336 28.2189C36.8888 27.3516 36.2916 26.2549 36.1322 25.1242C37.4974 24.9096 39.102 24.159 40.5376 22.9667C41.9728 21.7748 42.8777 20.4418 43.135 19.308Z" fill="#171717" style="fill:#171717;fill:color(display-p3 0.0902 0.0902 0.0902);fill-opacity:1;"/>
<path d="M14.839 16.6371C16.0479 16.6371 17.1225 16.8034 18.0628 17.136C19.0031 17.4578 19.7476 17.9189 20.2961 18.5196C20.8558 19.1203 21.1581 19.8175 21.2029 20.6113H17.6767C17.6319 20.3217 17.4862 20.0751 17.24 19.8713C17.0049 19.6567 16.6803 19.4957 16.2661 19.3885C15.852 19.2705 15.3539 19.2115 14.7718 19.2115C13.9883 19.2115 13.3669 19.3134 12.908 19.5172C12.449 19.7103 12.2195 19.9999 12.2195 20.386C12.2195 20.6649 12.3538 20.8903 12.6224 21.0619C12.9023 21.2335 13.4005 21.3514 14.1169 21.4158L16.6189 21.6573C17.8166 21.7645 18.7737 21.9521 19.4901 22.2203C20.2065 22.4777 20.727 22.8371 21.0516 23.2983C21.3762 23.7595 21.5386 24.3335 21.5386 25.02C21.5386 25.8674 21.2755 26.6076 20.7494 27.2405C20.2233 27.8626 19.4845 28.3508 18.533 28.7048C17.5815 29.048 16.4732 29.2195 15.2083 29.2195C13.9098 29.2195 12.7623 29.048 11.766 28.7048C10.781 28.3508 10.0086 27.8573 9.44894 27.2244C8.88923 26.5808 8.59258 25.8406 8.55899 25.0039H12.102C12.1579 25.3364 12.3202 25.626 12.5888 25.8727C12.8575 26.1194 13.2157 26.3126 13.6634 26.452C14.1224 26.5808 14.6598 26.6451 15.2754 26.6451C16.1262 26.6451 16.7978 26.5432 17.2904 26.3394C17.7829 26.1249 18.0292 25.8138 18.0292 25.4062C18.0292 25.0952 17.8893 24.8538 17.6095 24.6821C17.3297 24.5105 16.7923 24.3872 15.9975 24.3121L13.6466 24.1028C11.9116 23.9526 10.6522 23.5773 9.86863 22.9766C9.08508 22.3652 8.6933 21.5445 8.6933 20.5147C8.69331 19.6781 8.94522 18.9701 9.44894 18.3909C9.96387 17.8117 10.6802 17.3771 11.5982 17.0875C12.5273 16.7872 13.6076 16.6371 14.839 16.6371Z" fill="#171717" style="fill:#171717;fill:color(display-p3 0.0902 0.0902 0.0902);fill-opacity:1;"/>
<path d="M63.8021 19.7746H67.8321V22.2042H63.8021V24.9074C63.8021 25.5724 63.9421 26.0391 64.222 26.3073C64.5018 26.5754 65.0113 26.7094 65.7501 26.7094C66.2202 26.7094 66.6344 26.6719 66.9925 26.5968C67.3619 26.511 67.6978 26.4038 68 26.2751V28.753C67.6642 28.871 67.222 28.9782 66.6736 29.0747C66.1251 29.1713 65.5597 29.2195 64.9776 29.2195C63.9142 29.2195 63.041 29.0641 62.3582 28.753C61.6865 28.4419 61.1883 27.9967 60.8637 27.4174C60.539 26.8275 60.3768 26.141 60.3768 25.358V22.2042H58.4291V20.7723L60.3768 20.016L61.8543 17.2968H63.8021V19.7746Z" fill="#171717" style="fill:#171717;fill:color(display-p3 0.0902 0.0902 0.0902);fill-opacity:1;"/>
<path d="M56.8235 19.5011C57.0138 19.5011 57.2096 19.5118 57.4111 19.5333C57.6126 19.5547 57.8142 19.5869 58.0156 19.6298V22.4294C57.6798 22.3651 57.3608 22.3222 57.0586 22.3007C56.7675 22.2686 56.4988 22.2525 56.2525 22.2525C55.76 22.2525 55.3067 22.3492 54.8925 22.5422C54.4784 22.7246 54.1424 23.0303 53.8849 23.4594C53.6387 23.8884 53.5156 24.4624 53.5156 25.181V28.9621H50.0901V22.864L49.4522 19.7746H52.9446L53.37 22.2201C53.5344 21.761 53.7398 21.3482 53.9858 20.9814C54.2992 20.5202 54.6854 20.1609 55.1444 19.9034C55.6033 19.6353 56.1631 19.5011 56.8235 19.5011Z" fill="#171717" style="fill:#171717;fill:color(display-p3 0.0902 0.0902 0.0902);fill-opacity:1;"/>
<path fill-rule="evenodd" clip-rule="evenodd" d="M4.79834 0.626146C6.79052 -0.324663 9.34296 -0.193324 12.3776 1.02503L12.6754 1.14732C15.5534 2.35661 17.3566 3.96861 18.0288 5.9379C18.2217 6.60116 18.3064 7.2807 18.2871 7.95423C18.5598 7.6779 18.8684 7.43993 19.2133 7.24056C19.9298 6.83295 20.7582 6.62908 21.6985 6.62908C22.6052 6.62909 23.4111 6.83298 24.1163 7.24056C24.7712 7.60338 25.3229 8.10544 25.772 8.74614L26.0137 6.90274H29.5735L28.9691 11.4884L29.5735 16.0901H26.0137L25.7671 14.2173C25.3257 14.8652 24.7758 15.3771 24.1163 15.7523C23.4111 16.1492 22.6052 16.3475 21.6985 16.3475C20.7582 16.3475 19.9298 16.1492 19.2133 15.7523C18.5081 15.3447 17.9539 14.7762 17.551 14.0467C17.1846 13.3739 16.9853 12.6124 16.9519 11.7622C15.1243 14.5593 12.2604 16.591 8.93328 17.4475C7.88063 18.1932 6.94211 19.076 6.14441 20.0692C6.27556 20.2648 6.29892 20.5095 6.20851 20.7253L4.26819 25.1719C3.79468 26.2568 2.49486 26.7687 1.36371 26.3146C0.232519 25.8604 -0.300703 24.6126 0.172726 23.5275L2.11286 19.081C2.2097 18.8678 2.40896 18.7124 2.64626 18.6648C2.82298 17.4222 2.81993 16.1614 2.63595 14.9193C0.905744 11.9937 0.416569 8.542 1.27175 5.2798C1.67289 3.30489 2.96322 1.60158 4.79834 0.626146ZM4.12034 23.0583C4.11549 23.0572 1.80255 22.5638 1.246 23.512C1.16385 23.652 1.08045 23.8907 1.07927 23.8941C0.816267 24.4969 1.11299 25.1912 1.74143 25.4435C2.36983 25.6957 3.09363 25.4112 3.35668 24.8085L4.12034 23.0583ZM1.69507 22.4832C1.71328 22.4861 3.79533 22.8218 4.56884 22.0304C5.01046 21.5784 5.20851 20.5718 5.21097 20.5592L2.93356 19.6448L1.69507 22.4832ZM3.7491 16.31C3.80345 17.1723 3.75388 18.0374 3.60297 18.8881L5.30292 19.5706C5.82876 18.8704 6.43655 18.2294 7.11505 17.6613C6.52216 17.6719 5.93476 17.5717 5.38209 17.3667L5.18407 17.2871C4.64392 17.0535 4.15741 16.7225 3.7491 16.31ZM12.0209 1.90633C9.24389 0.791422 6.96523 0.648647 5.23596 1.47326C3.66057 2.32971 2.55838 3.80819 2.22427 5.51471C1.17402 9.43567 2.42333 13.3405 4.10565 15.2884V4.39686C4.1057 4.19014 4.28062 4.02249 4.49635 4.02247H11.1748C12.2271 4.02248 13.1338 4.19418 13.895 4.53743C14.6674 4.88069 15.2551 5.36883 15.6581 6.0017C16.0611 6.62383 16.2625 7.35323 16.2625 8.18987C16.2625 9.01583 16.0611 9.74535 15.6581 10.3782C15.2552 11.0003 14.6674 11.483 13.895 11.8262C13.1338 12.1695 12.2271 12.3412 11.1748 12.3412H7.58149V15.9029C7.58149 16.0063 7.49402 16.0901 7.38614 16.0901H4.9748C5.17068 16.2271 5.36774 16.3369 5.56409 16.4157L5.7623 16.4952C8.0376 17.4087 13.4251 15.5564 16.2018 11.1264C17.2346 9.70053 17.5592 7.90948 17.0895 6.23203C16.4883 4.47181 14.7829 3.0152 12.0209 1.90633ZM22.7227 9.13917C22.275 9.13917 21.8776 9.24121 21.5306 9.44501C21.1836 9.6488 20.9093 9.92758 20.7078 10.2815C20.5175 10.6355 20.4222 11.0432 20.4222 11.5045C20.4222 11.955 20.5175 12.3572 20.7078 12.7112C20.9093 13.0652 21.1836 13.3441 21.5306 13.5479C21.8776 13.7409 22.275 13.8374 22.7227 13.8374C23.1929 13.8374 23.635 13.7409 24.0492 13.5479C24.4633 13.3441 24.8271 13.0651 25.1406 12.7112C25.454 12.3572 25.6891 11.955 25.8458 11.5045C25.6891 11.0432 25.454 10.6355 25.1406 10.2815C24.8271 9.92758 24.4633 9.6488 24.0492 9.44501C23.635 9.24121 23.1929 9.13918 22.7227 9.13917ZM7.58149 9.67022H10.9566C11.5163 9.67021 11.9528 9.54138 12.2662 9.28395C12.5796 9.01579 12.7365 8.6511 12.7365 8.18987C12.7365 7.71791 12.5797 7.35322 12.2662 7.09578C11.9528 6.82763 11.5163 6.69344 10.9566 6.69343H7.58149V9.67022Z" fill="#171717" style="fill:#171717;fill:color(display-p3 0.0902 0.0902 0.0902);fill-opacity:1;"/>
<path d="M42.0695 19.308C41.8217 20.191 41.0731 21.3136 39.7942 22.3757C38.5148 23.4378 37.1638 24.0596 36.1011 24.2653C36.1784 23.0158 36.7856 21.7854 37.934 20.8308C39.083 19.8766 40.5655 19.3727 42.0695 19.308Z" fill="#171717" style="fill:#171717;fill:color(display-p3 0.0902 0.0902 0.0902);fill-opacity:1;"/>
<path fill-rule="evenodd" clip-rule="evenodd" d="M42.8263 11.2471L43.4309 16.0901H39.8879L39.6301 14.1332C39.1797 14.8211 38.6111 15.361 37.9233 15.7523C37.2181 16.1492 36.412 16.3475 35.5053 16.3475C34.565 16.3475 33.7366 16.1492 33.0201 15.7523C32.3149 15.3447 31.7609 14.7761 31.358 14.0467C30.955 13.3066 30.7534 12.4592 30.7534 11.5045C30.7534 10.5283 30.955 9.67555 31.358 8.94613C31.7609 8.21674 32.3149 7.64817 33.0201 7.24056C33.7366 6.83295 34.565 6.62908 35.5053 6.62908C36.412 6.62908 37.2181 6.83295 37.9233 7.24056C38.596 7.6132 39.1599 8.13249 39.6155 8.79824L40.2572 3.70074H43.817L42.8263 11.2471ZM36.5296 9.13917C36.0818 9.13918 35.6844 9.2412 35.3374 9.44501C34.9904 9.6488 34.7161 9.92758 34.5146 10.2815C34.3243 10.6355 34.2292 11.0432 34.2292 11.5045C34.2293 11.955 34.3244 12.3572 34.5146 12.7112C34.7161 13.0652 34.9904 13.3441 35.3374 13.5479C35.6844 13.7409 36.0818 13.8374 36.5296 13.8374C36.9997 13.8374 37.442 13.741 37.8562 13.5479C38.2703 13.3441 38.6342 13.0651 38.9476 12.7112C39.261 12.3572 39.496 11.955 39.6527 11.5045C39.4959 11.0432 39.261 10.6355 38.9476 10.2815C38.6342 9.92758 38.2703 9.6488 37.8562 9.44501C37.442 9.2412 36.9997 9.13917 36.5296 9.13917Z" fill="#171717" style="fill:#171717;fill:color(display-p3 0.0902 0.0902 0.0902);fill-opacity:1;"/>
<path fill-rule="evenodd" clip-rule="evenodd" d="M50.3692 6.62908C51.5222 6.62908 52.5017 6.8705 53.3076 7.35317C54.1248 7.82513 54.7517 8.49557 55.1882 9.36439C55.636 10.2333 55.8599 11.2578 55.8599 12.4377H48.2755C48.3188 12.5269 48.3672 12.6128 48.4214 12.6951C48.7013 13.092 49.1043 13.3977 49.6303 13.6122C50.1677 13.8268 50.8227 13.9341 51.5951 13.9341C52.3003 13.9341 52.9999 13.8482 53.6939 13.6766C54.3992 13.4942 55.0372 13.2421 55.6081 12.9203V15.0121C54.9477 15.4412 54.192 15.7737 53.3412 16.0097C52.5017 16.2349 51.595 16.3475 50.6212 16.3475C49.457 16.3475 48.4158 16.1438 47.4979 15.7362C46.5912 15.3286 45.8748 14.7601 45.3487 14.0307C44.8226 13.2905 44.5595 12.4323 44.5595 11.4562C44.5595 10.5015 44.8114 9.66482 45.3151 8.94613C45.8188 8.21672 46.5073 7.64818 47.3804 7.24056C48.2647 6.83295 49.261 6.62909 50.3692 6.62908ZM50.4531 8.94613C49.9494 8.94614 49.5185 9.04263 49.1603 9.23569C48.8021 9.42877 48.5222 9.69698 48.3207 10.0402C48.2417 10.1706 48.1785 10.3102 48.1305 10.4587H52.6649C52.6051 10.2761 52.5284 10.1097 52.4345 9.95978C52.233 9.62729 51.9644 9.37514 51.6287 9.20352C51.304 9.03189 50.9121 8.94613 50.4531 8.94613Z" fill="#171717" style="fill:#171717;fill:color(display-p3 0.0902 0.0902 0.0902);fill-opacity:1;"/>
<path d="M60.7692 16.0901H57.3272V3.70074H60.7692V16.0901Z" fill="#171717" style="fill:#171717;fill:color(display-p3 0.0902 0.0902 0.0902);fill-opacity:1;"/>
</svg>
