<svg width="82" height="48" viewBox="0 0 82 48" fill="none" xmlns="http://www.w3.org/2000/svg">
<path d="M13.3103 5C14.5636 5 15.6436 5.21333 16.5503 5.64C17.4703 6.06666 18.1703 6.67333 18.6503 7.46C19.1303 8.23333 19.3703 9.14 19.3703 10.18C19.3703 11.2067 19.1303 12.1133 18.6503 12.9C18.1703 13.6733 17.4703 14.2733 16.5503 14.7C15.6436 15.1267 14.5636 15.34 13.3103 15.34H6.81026V12.02H13.0503C13.7169 12.02 14.2369 11.86 14.6103 11.54C14.9836 11.2067 15.1703 10.7533 15.1703 10.18C15.1703 9.59333 14.9836 9.14 14.6103 8.82C14.2369 8.48666 13.7169 8.32 13.0503 8.32H7.17026L9.03026 6.4V19.172C9.03026 19.6293 8.65955 20 8.20226 20C6.37309 20 4.89026 18.5172 4.89026 16.688V7C4.89026 5.89543 5.78569 5 6.89026 5H13.3103Z" fill="white"/>
<path d="M30.9849 20L30.4649 15.88L31.0049 14.3L30.4649 12.72L30.9849 8.58H35.2249L34.5049 14.28L35.2249 20H30.9849ZM31.9449 14.3C31.7583 15.5 31.3849 16.5533 30.8249 17.46C30.2783 18.3667 29.5783 19.0733 28.7249 19.58C27.8849 20.0733 26.9249 20.32 25.8449 20.32C24.7249 20.32 23.7383 20.0733 22.8849 19.58C22.0449 19.0733 21.3849 18.3667 20.9049 17.46C20.4249 16.54 20.1849 15.4867 20.1849 14.3C20.1849 13.0867 20.4249 12.0267 20.9049 11.12C21.3849 10.2133 22.0449 9.50667 22.8849 9C23.7383 8.49333 24.7249 8.24 25.8449 8.24C26.9249 8.24 27.8849 8.49333 28.7249 9C29.5783 9.49333 30.2849 10.1933 30.8449 11.1C31.4049 11.9933 31.7716 13.06 31.9449 14.3ZM24.3249 14.3C24.3249 14.86 24.4383 15.36 24.6649 15.8C24.9049 16.24 25.2316 16.5867 25.6449 16.84C26.0583 17.08 26.5316 17.2 27.0649 17.2C27.6249 17.2 28.1516 17.08 28.6449 16.84C29.1383 16.5867 29.5716 16.24 29.9449 15.8C30.3183 15.36 30.5983 14.86 30.7849 14.3C30.5983 13.7267 30.3183 13.22 29.9449 12.78C29.5716 12.34 29.1383 11.9933 28.6449 11.74C28.1516 11.4867 27.6249 11.36 27.0649 11.36C26.5316 11.36 26.0583 11.4867 25.6449 11.74C25.2316 11.9933 24.9049 12.34 24.6649 12.78C24.4383 13.22 24.3249 13.7267 24.3249 14.3Z" fill="white"/>
<path d="M47.5103 20L46.9703 15.72L47.6703 14.32L46.9903 12.56L47.9503 4.6H52.1903L51.0103 13.98L51.7303 20H47.5103ZM48.3903 14.3C48.2036 15.5 47.8303 16.5533 47.2703 17.46C46.7236 18.3667 46.0236 19.0733 45.1703 19.58C44.3303 20.0733 43.3703 20.32 42.2903 20.32C41.1703 20.32 40.1836 20.0733 39.3303 19.58C38.4903 19.0733 37.8303 18.3667 37.3503 17.46C36.8703 16.54 36.6303 15.4867 36.6303 14.3C36.6303 13.0867 36.8703 12.0267 37.3503 11.12C37.8303 10.2133 38.4903 9.50667 39.3303 9C40.1836 8.49333 41.1703 8.24 42.2903 8.24C43.3703 8.24 44.3303 8.49333 45.1703 9C46.0236 9.49333 46.7303 10.1933 47.2903 11.1C47.8503 11.9933 48.2169 13.06 48.3903 14.3ZM40.7703 14.3C40.7703 14.86 40.8836 15.36 41.1103 15.8C41.3503 16.24 41.6769 16.5867 42.0903 16.84C42.5036 17.08 42.9769 17.2 43.5103 17.2C44.0703 17.2 44.5969 17.08 45.0903 16.84C45.5836 16.5867 46.0169 16.24 46.3903 15.8C46.7636 15.36 47.0436 14.86 47.2303 14.3C47.0436 13.7267 46.7636 13.22 46.3903 12.78C46.0169 12.34 45.5836 11.9933 45.0903 11.74C44.5969 11.4867 44.0703 11.36 43.5103 11.36C42.9769 11.36 42.5036 11.4867 42.0903 11.74C41.6769 11.9933 41.3503 12.34 41.1103 12.78C40.8836 13.22 40.7703 13.7267 40.7703 14.3Z" fill="white"/>
<path d="M60.2946 20.32C58.908 20.32 57.668 20.0667 56.5746 19.56C55.4946 19.0533 54.6413 18.3467 54.0146 17.44C53.388 16.52 53.0746 15.4533 53.0746 14.24C53.0746 13.0533 53.3746 12.0133 53.9746 11.12C54.5746 10.2133 55.3946 9.50667 56.4346 9C57.488 8.49333 58.6746 8.24 59.9946 8.24C61.368 8.24 62.5346 8.54 63.4946 9.14C64.468 9.72667 65.2146 10.56 65.7346 11.64C66.268 12.72 66.5346 13.9933 66.5346 15.46H56.3746V13H64.2346L62.8946 13.86C62.8413 13.2733 62.6946 12.78 62.4546 12.38C62.2146 11.9667 61.8946 11.6533 61.4946 11.44C61.108 11.2267 60.6413 11.12 60.0946 11.12C59.4946 11.12 58.9813 11.24 58.5546 11.48C58.128 11.72 57.7946 12.0533 57.5546 12.48C57.3146 12.8933 57.1946 13.38 57.1946 13.94C57.1946 14.66 57.3546 15.2733 57.6746 15.78C58.008 16.2733 58.488 16.6533 59.1146 16.92C59.7546 17.1867 60.5346 17.32 61.4546 17.32C62.2946 17.32 63.128 17.2133 63.9546 17C64.7946 16.7733 65.5546 16.46 66.2346 16.06V18.66C65.448 19.1933 64.548 19.6067 63.5346 19.9C62.5346 20.18 61.4546 20.32 60.2946 20.32Z" fill="white"/>
<path d="M68.2821 4.6H72.3821V20H68.2821V4.6Z" fill="white"/>
<path d="M5.71484 0.77832C8.08774 -0.403566 11.1285 -0.240011 14.7432 1.27441L14.7617 1.28223C18.3854 2.80046 20.6471 4.85406 21.4736 7.38086C22.145 9.79029 21.7185 12.3724 20.3057 14.4355C18.1349 18.0077 14.6734 20.6041 10.6406 21.6875C9.38681 22.6144 8.26849 23.7116 7.31836 24.9463C7.47454 25.1894 7.50221 25.4935 7.39453 25.7617L5.08398 31.2881C4.52003 32.6368 2.9714 33.2735 1.62402 32.709C0.276785 32.1444 -0.357869 30.5928 0.206055 29.2441L2.5166 23.7178C2.63195 23.4527 2.86966 23.2594 3.15234 23.2002C3.36282 21.6557 3.35874 20.0888 3.13965 18.5449C1.07879 14.9084 0.496012 10.6174 1.51465 6.5625C1.99245 4.10786 3.52926 1.99079 5.71484 0.77832ZM4.9082 28.6611C4.9082 28.6611 2.14797 28.0457 1.48438 29.2256C1.38583 29.4009 1.28516 29.7002 1.28516 29.7002C0.971909 30.4495 1.32569 31.3124 2.07422 31.626C2.82271 31.9396 3.68468 31.5861 3.99805 30.8369L4.9082 28.6611ZM2.01855 27.9463C2.01855 27.9463 4.51706 28.372 5.44238 27.3838C5.97165 26.8184 6.20703 25.5547 6.20703 25.5547L3.49414 24.418L2.01855 27.9463ZM4.46582 20.2734C4.53054 21.3451 4.47073 22.4202 4.29102 23.4775L6.31641 24.3262C6.94272 23.4559 7.66647 22.6592 8.47461 21.9531C7.76857 21.9662 7.06928 21.8417 6.41113 21.5869L6.1748 21.4883C5.5315 21.1979 4.95213 20.786 4.46582 20.2734ZM14.3184 2.36914C11.0107 0.98331 8.29606 0.806045 6.23633 1.83105C4.35998 2.8956 3.04741 4.7334 2.64941 6.85449C1.05175 13.0789 3.92174 19.2705 6.62793 20.4043L6.86328 20.5039C9.57335 21.6393 15.9904 19.3365 19.2979 13.8301C20.528 12.0576 20.915 9.83119 20.3555 7.74609C19.6394 5.5582 17.608 3.74745 14.3184 2.36914Z" fill="white"/>
<path d="M36.2725 24.2402C37.3922 24.2403 38.372 24.4934 39.2119 25C40.0652 25.5067 40.7257 26.2135 41.1924 27.1201C41.6723 28.0267 41.9121 29.0867 41.9121 30.2998C41.9121 31.4864 41.6723 32.54 41.1924 33.46C40.7257 34.3666 40.0652 35.0734 39.2119 35.5801C38.3721 36.0733 37.3922 36.3202 36.2725 36.3203C35.1925 36.3203 34.2254 36.0734 33.3721 35.5801C32.6189 35.1329 31.9859 34.5293 31.4717 33.7705V48H27.3721V24.5801H31.4717V26.7646C31.9931 26.0188 32.627 25.4308 33.3721 25C34.2254 24.4934 35.1925 24.2402 36.2725 24.2402ZM58 30.8408C57.9078 32.3934 57.1849 33.9228 55.8164 35.1094C54.4479 36.2954 52.6821 36.9221 50.8906 37.002C51.1858 35.9044 52.0783 34.5097 53.6016 33.1895C55.1254 31.8694 56.7343 31.0966 58 30.8408ZM51.3779 24C53.0001 24.1645 54.5726 24.781 55.8164 25.8594C57.0609 26.9374 57.773 28.3006 57.9629 29.7061C56.3368 29.9727 54.4249 30.9056 52.7148 32.3877C51.0055 33.8692 49.9275 35.5263 49.6211 36.9355C47.999 36.7704 46.4263 36.154 45.1826 35.0762C43.9382 33.9982 43.227 32.6349 43.0371 31.2295C44.6631 30.9628 46.5742 30.0298 48.2842 28.5479C49.9936 27.0663 51.0715 25.4093 51.3779 24ZM17.6748 20.6797C19.1147 20.6797 20.3947 20.8865 21.5146 21.2998C22.6346 21.6998 23.5215 22.273 24.1748 23.0195C24.8415 23.7662 25.2015 24.6335 25.2549 25.6201H21.0547C21.0014 25.2601 20.8275 24.9535 20.5342 24.7002C20.2542 24.4336 19.8681 24.2329 19.375 24.0996C18.8817 23.9529 18.288 23.8799 17.5947 23.8799C16.6616 23.8799 15.9216 24.0066 15.375 24.2598C14.8284 24.4997 14.5547 24.8599 14.5547 25.3398C14.5547 25.6863 14.7145 25.9664 15.0342 26.1797C15.3675 26.393 15.9612 26.5401 16.8145 26.6201L19.7949 26.9199C21.2215 27.0533 22.3616 27.2868 23.2148 27.6201C24.068 27.9401 24.6876 28.3868 25.0742 28.96C25.4608 29.5332 25.6542 30.2464 25.6543 31.0996C25.6543 32.1529 25.3415 33.0737 24.7148 33.8604C24.0882 34.6336 23.2075 35.2397 22.0742 35.6797C20.9409 36.1063 19.6208 36.3203 18.1143 36.3203C16.5677 36.3203 15.2012 36.1063 14.0146 35.6797C12.8414 35.2397 11.9215 34.6265 11.2549 33.8398C10.5882 33.0399 10.2343 32.1201 10.1943 31.0801H14.415C14.4817 31.4934 14.6752 31.8535 14.9951 32.1602C15.315 32.4666 15.7414 32.7066 16.2744 32.8799C16.821 33.0399 17.4611 33.1201 18.1943 33.1201C19.2077 33.1201 20.0081 32.9936 20.5947 32.7402C21.1814 32.4736 21.4746 32.0867 21.4746 31.5801C21.4746 31.1934 21.3079 30.893 20.9746 30.6797C20.6412 30.4664 20.0012 30.313 19.0547 30.2197L16.2549 29.96C14.1882 29.7733 12.6882 29.3062 11.7549 28.5596C10.8216 27.7996 10.3545 26.78 10.3545 25.5C10.3545 24.46 10.6549 23.5803 11.2549 22.8604C11.8682 22.1404 12.7212 21.6002 13.8145 21.2402C14.9211 20.8669 16.2081 20.6797 17.6748 20.6797ZM75.9951 24.5801H80.7949V27.5996H75.9951V30.96C75.9951 31.7866 76.1618 32.3669 76.4951 32.7002C76.8285 33.0333 77.4348 33.2002 78.3145 33.2002C78.8745 33.2002 79.3683 33.1529 79.7949 33.0596C80.2348 32.9529 80.6352 32.8201 80.9951 32.6602V35.7402C80.5952 35.8869 80.0682 36.0197 79.415 36.1396C78.7617 36.2596 78.0879 36.3203 77.3945 36.3203C76.1279 36.3203 75.0877 36.1269 74.2744 35.7402C73.4746 35.3536 72.8818 34.7999 72.4951 34.0801C72.1085 33.3467 71.915 32.4929 71.915 31.5195V27.5996H69.5947V25.8203L71.915 24.8799L73.6748 21.5H75.9951V24.5801ZM67.6826 24.2402C67.909 24.2402 68.1421 24.2537 68.3818 24.2803C68.6218 24.3069 68.8625 24.3471 69.1025 24.4004V27.8799C68.7025 27.7999 68.3219 27.7464 67.9619 27.7197C67.6154 27.6798 67.2952 27.6602 67.002 27.6602C66.4154 27.6602 65.8751 27.7796 65.3818 28.0195C64.8886 28.2462 64.4892 28.6269 64.1826 29.1602C63.8893 29.6935 63.7422 30.4066 63.7422 31.2998V36H59.6621V28.4199L58.9023 24.5801H63.0625L63.5684 27.6221C63.7643 27.0505 64.0093 26.5365 64.3027 26.0801C64.6761 25.5068 65.136 25.0602 65.6826 24.7402C66.2293 24.407 66.896 24.2402 67.6826 24.2402ZM35.0322 27.3604C34.4856 27.3604 33.965 27.4869 33.4717 27.7402C32.9785 27.9936 32.5451 28.3404 32.1719 28.7803C31.7986 29.2202 31.5115 29.7266 31.3115 30.2998C31.5115 30.8597 31.7986 31.3598 32.1719 31.7998C32.5451 32.2397 32.9785 32.5865 33.4717 32.8398C33.965 33.0798 34.4856 33.2002 35.0322 33.2002C35.5655 33.2002 36.0389 33.0798 36.4521 32.8398C36.8787 32.5865 37.205 32.2397 37.4316 31.7998C37.6716 31.3598 37.792 30.8598 37.792 30.2998C37.792 29.7266 37.6716 29.2202 37.4316 28.7803C37.205 28.3403 36.8787 27.9936 36.4521 27.7402C36.0389 27.4869 35.5655 27.3604 35.0322 27.3604ZM50.1094 24C49.8142 25.0976 48.9217 26.4923 47.3984 27.8125C45.8745 29.1327 44.2658 29.9063 43 30.1621C43.0921 28.6089 43.8157 27.0792 45.1836 25.8926C46.5521 24.7067 48.318 24.0804 50.1094 24Z" fill="white"/>
</svg>
